<svg xmlns="http://www.w3.org/2000/svg" viewBox="0 0 400.48 224.26"><defs><style>.cls-1{fill:#20c6c6;}</style></defs><title>logo</title><g id="Layer_2" data-name="Layer 2"><g id="Ρλξι_1" data-name="Ρλξι 1"><circle class="cls-1" cx="366.45" cy="190.21" r="34.02"/><path class="cls-1" d="M311.56,110.26a34,34,0,0,0-47.38,8.36l-.13.19a11.34,11.34,0,0,1-15.63,2.6l0,0a11.38,11.38,0,0,1-2.75-15.8h0a34,34,0,0,0-55.77-39L143,133.4l0,0a11.34,11.34,0,0,1-15.78,2.8l0,0a11.38,11.38,0,0,1-2.75-15.8l-.95,1.35,47.77-68.23a34,34,0,0,0-55.74-39L6.16,170.71a34,34,0,0,0,55.74,39l36.54-52.19a11.35,11.35,0,0,1,15.75-2.76l0,0A11.32,11.32,0,0,1,117,170.56l0,0v0a34,34,0,0,0,55.76,39l46.86-66.92A11.35,11.35,0,0,1,235.37,140l0,0a11.31,11.31,0,0,1,2.91,15.55l-10.59,15.13a34,34,0,1,0,55.74,39l36.45-52.05A34,34,0,0,0,311.56,110.26Z"/></g></g></svg>