<svg xmlns="http://www.w3.org/2000/svg" viewBox="0 0 350.7 289.65"><defs><style>.cls-1{fill:#424852;}</style></defs><title>prize</title><g id="Layer_2" data-name="Layer 2"><g id="Layer_1-2" data-name="Layer 1"><path class="cls-1" d="M89.62,90.1a11.85,11.85,0,1,0-6.4,1.9c.28,0,.54-.06.82-.08,2.1,20.38,3.64,35.71,4.89,48.7,4.76,2.62,9.25,4.13,13.09,4.13l1.55-.08c5.4-.62,9.66-3.11,13.58-8.23A369.06,369.06,0,0,1,89.62,90.1Z"/><path class="cls-1" d="M267.48,68.24a11.86,11.86,0,0,0-6.4,21.86,367.82,367.82,0,0,1-27.53,46.32c3.92,5.12,8.17,7.62,13.56,8.24l1.56.08c3.84,0,8.33-1.51,13.09-4.12,1.25-13,2.79-28.31,4.9-48.7.27,0,.53.08.81.08a11.88,11.88,0,1,0,0-23.77Z"/><path class="cls-1" d="M289.89,253.65H60.81A17.4,17.4,0,0,0,43.35,271v1.31a17.4,17.4,0,0,0,17.46,17.35H289.89a17.4,17.4,0,0,0,17.46-17.35V271A17.4,17.4,0,0,0,289.89,253.65Z"/><path class="cls-1" d="M333.28,61.78a17.37,17.37,0,0,0-8.49,32.55c-7,11.09-15.19,23.53-21.77,32.3-14.78,19.7-37.31,38.27-57.95,35.91-22.59-2.6-31.82-22.4-38.16-39.36-9.52-25.47-24.86-72.95-29.84-88.5a17.43,17.43,0,1,0-3.43,0c-5,15.56-20.34,63-29.85,88.5-6.33,17-15.56,36.76-38.16,39.36C85,164.91,62.46,146.33,47.69,126.63c-6.59-8.77-14.74-21.21-21.78-32.3a17.3,17.3,0,1,0-8.49,2.3,17.17,17.17,0,0,0,4.65-.71c16.44,38.81,43.65,108.75,40.66,139.73H288c-3-31,24.22-100.92,40.66-139.73a17.17,17.17,0,0,0,4.65.71,17.43,17.43,0,1,0,0-34.85Z"/></g></g></svg>